G75*
%MOIN*%
%OFA0B0*%
%FSLAX25Y25*%
%IPPOS*%
%LPD*%
%AMOC8*
5,1,8,0,0,1.08239X$1,22.5*
%
%ADD10C,0.00000*%
%ADD11C,0.05200*%
%ADD12C,0.06000*%
%ADD13C,0.07400*%
%ADD14OC8,0.05200*%
%ADD15C,0.03200*%
%ADD16C,0.00600*%
D10*
X0048342Y0028933D02*
X0048342Y0143894D01*
X0177043Y0143894D01*
X0177043Y0028933D01*
X0048342Y0028933D01*
D11*
X0130742Y0073933D02*
X0135942Y0073933D01*
X0135942Y0083933D02*
X0130742Y0083933D01*
X0130742Y0093933D02*
X0135942Y0093933D01*
X0135942Y0103933D02*
X0130742Y0103933D01*
X0160742Y0103933D02*
X0165942Y0103933D01*
X0165942Y0093933D02*
X0160742Y0093933D01*
X0160742Y0083933D02*
X0165942Y0083933D01*
X0165942Y0073933D02*
X0160742Y0073933D01*
D12*
X0161342Y0053933D02*
X0155342Y0053933D01*
X0155342Y0043933D02*
X0161342Y0043933D01*
X0123342Y0045933D02*
X0123342Y0051933D01*
X0113342Y0051933D02*
X0113342Y0045933D01*
X0103342Y0045933D02*
X0103342Y0051933D01*
X0155342Y0118933D02*
X0161342Y0118933D01*
X0161342Y0128933D02*
X0155342Y0128933D01*
X0138342Y0126933D02*
X0138342Y0120933D01*
X0128342Y0120933D02*
X0128342Y0126933D01*
X0118342Y0126933D02*
X0118342Y0120933D01*
X0108342Y0120933D02*
X0108342Y0126933D01*
X0098342Y0126933D02*
X0098342Y0120933D01*
X0088342Y0120933D02*
X0088342Y0126933D01*
D13*
X0063342Y0108933D03*
X0063342Y0098933D03*
X0063342Y0088933D03*
D14*
X0083342Y0078933D03*
X0103342Y0078933D03*
X0118342Y0078933D03*
X0088342Y0058933D03*
X0088342Y0048933D03*
X0058342Y0048933D03*
X0058342Y0058933D03*
X0083342Y0098933D03*
X0103342Y0108933D03*
X0118342Y0108933D03*
D15*
X0094442Y0078433D02*
X0084842Y0078433D01*
X0083342Y0078933D01*
X0083342Y0079033D01*
X0063542Y0098833D01*
X0063342Y0098933D01*
X0094442Y0078433D02*
X0123242Y0049633D01*
X0123242Y0049033D01*
X0123342Y0048933D01*
D16*
X0125042Y0041833D02*
X0157142Y0073933D01*
X0157142Y0077833D01*
X0163142Y0083833D01*
X0163342Y0083933D01*
X0169442Y0085633D02*
X0169442Y0055033D01*
X0158342Y0043933D01*
X0129842Y0040633D02*
X0163142Y0073933D01*
X0163342Y0073933D01*
X0169442Y0085633D02*
X0163442Y0091633D01*
X0163442Y0093733D01*
X0163342Y0093933D01*
X0158342Y0118933D02*
X0133342Y0093933D01*
X0133142Y0086533D02*
X0118442Y0101233D01*
X0118442Y0108733D01*
X0118342Y0108933D01*
X0118142Y0109033D01*
X0118142Y0114133D01*
X0108342Y0123933D01*
X0118342Y0123933D02*
X0118442Y0123733D01*
X0118442Y0118633D01*
X0133142Y0103933D01*
X0133342Y0103933D01*
X0118142Y0094033D02*
X0103442Y0108733D01*
X0103342Y0108933D01*
X0103142Y0109033D01*
X0088442Y0123733D01*
X0088342Y0123933D01*
X0073442Y0109033D01*
X0063542Y0109033D01*
X0063342Y0108933D01*
X0063242Y0108733D01*
X0054842Y0100333D01*
X0054842Y0057433D01*
X0058142Y0054133D01*
X0058142Y0049033D01*
X0058342Y0048933D01*
X0058342Y0058933D02*
X0083342Y0058933D01*
X0100442Y0041833D01*
X0125042Y0041833D01*
X0129842Y0040633D02*
X0099842Y0040633D01*
X0091742Y0048733D01*
X0088442Y0048733D01*
X0088342Y0048933D01*
X0088342Y0058933D02*
X0103442Y0058933D01*
X0113342Y0049033D01*
X0113342Y0048933D01*
X0133142Y0073933D02*
X0133342Y0073933D01*
X0133142Y0073933D02*
X0128342Y0078733D01*
X0118442Y0078733D01*
X0118342Y0078933D01*
X0118142Y0079033D01*
X0118142Y0094033D01*
X0133142Y0086533D02*
X0133142Y0084133D01*
X0133342Y0083933D01*
M02*
