%
M48
M72
T01C0.03200
T02C0.04000
%
T01
X58342Y48933
X58342Y58933
X83342Y78933
X103342Y78933
X118342Y78933
X133342Y73933
X133342Y83933
X133342Y93933
X133342Y103933
X118342Y108933
X103342Y108933
X83342Y98933
X88342Y58933
X88342Y48933
X163342Y73933
X163342Y83933
X163342Y93933
X163342Y103933
T02
X158342Y118933
X158342Y128933
X138342Y123933
X128342Y123933
X118342Y123933
X108342Y123933
X98342Y123933
X88342Y123933
X63342Y108933
X63342Y98933
X63342Y88933
X103342Y48933
X113342Y48933
X123342Y48933
X158342Y43933
X158342Y53933
M30
