G75*
%MOIN*%
%OFA0B0*%
%FSLAX25Y25*%
%IPPOS*%
%LPD*%
%AMOC8*
5,1,8,0,0,1.08239X$1,22.5*
%
%ADD10C,0.06000*%
%ADD11C,0.06800*%
%ADD12C,0.08200*%
%ADD13OC8,0.06000*%
D10*
X0130742Y0073933D02*
X0135942Y0073933D01*
X0135942Y0083933D02*
X0130742Y0083933D01*
X0130742Y0093933D02*
X0135942Y0093933D01*
X0135942Y0103933D02*
X0130742Y0103933D01*
X0160742Y0103933D02*
X0165942Y0103933D01*
X0165942Y0093933D02*
X0160742Y0093933D01*
X0160742Y0083933D02*
X0165942Y0083933D01*
X0165942Y0073933D02*
X0160742Y0073933D01*
D11*
X0161342Y0053933D02*
X0155342Y0053933D01*
X0155342Y0043933D02*
X0161342Y0043933D01*
X0123342Y0045933D02*
X0123342Y0051933D01*
X0113342Y0051933D02*
X0113342Y0045933D01*
X0103342Y0045933D02*
X0103342Y0051933D01*
X0160342Y0118933D02*
X0166342Y0118933D01*
X0166342Y0128933D02*
X0160342Y0128933D01*
X0138342Y0126933D02*
X0138342Y0120933D01*
X0128342Y0120933D02*
X0128342Y0126933D01*
X0118342Y0126933D02*
X0118342Y0120933D01*
X0108342Y0120933D02*
X0108342Y0126933D01*
X0098342Y0126933D02*
X0098342Y0120933D01*
X0088342Y0120933D02*
X0088342Y0126933D01*
D12*
X0063342Y0108933D03*
X0063342Y0098933D03*
X0063342Y0088933D03*
D13*
X0063342Y0058933D03*
X0083342Y0078933D03*
X0103342Y0078933D03*
X0118342Y0078933D03*
X0093342Y0058933D03*
X0083342Y0098933D03*
X0103342Y0108933D03*
X0118342Y0108933D03*
M02*
